<?xml version="1.0" encoding="UTF-8" standalone="no"?>
<!-- Created with Inkscape (http://www.inkscape.org/) -->

<svg
   width="31.448664mm"
   height="31.448662mm"
   viewBox="0 0 31.448664 31.448662"
   version="1.1"
   id="svg1"
   inkscape:export-filename="notsure.svg"
   inkscape:export-xdpi="96"
   inkscape:export-ydpi="96"
   xmlns:inkscape="http://www.inkscape.org/namespaces/inkscape"
   xmlns:sodipodi="http://sodipodi.sourceforge.net/DTD/sodipodi-0.dtd"
   xmlns="http://www.w3.org/2000/svg"
   xmlns:svg="http://www.w3.org/2000/svg">
  <sodipodi:namedview
     id="namedview1"
     pagecolor="#ffffff"
     bordercolor="#000000"
     borderopacity="0.25"
     inkscape:showpageshadow="2"
     inkscape:pageopacity="0.0"
     inkscape:pagecheckerboard="0"
     inkscape:deskcolor="#d1d1d1"
     inkscape:document-units="mm">
    <inkscape:page
       x="0"
       y="0"
       width="31.448664"
       height="31.448662"
       id="page2"
       margin="0"
       bleed="0" />
  </sodipodi:namedview>
  <defs
     id="defs1">
    <clipPath
       clipPathUnits="userSpaceOnUse"
       id="clipPath112">
      <path
         d="m 5408.9764,1189.6063 c 0,-78.2766 63.4557,-141.7323 141.7323,-141.7323 H 7054.252 c 78.2765,0 141.7322,63.4557 141.7322,141.7323 v 1779.2126 c 0,78.2766 -63.4557,141.7323 -141.7322,141.7323 H 5550.7087 c -78.2766,0 -141.7323,-63.4557 -141.7323,-141.7323 z"
         clip-rule="evenodd"
         id="path112" />
    </clipPath>
  </defs>
  <g
     inkscape:label="Layer 1"
     inkscape:groupmode="layer"
     id="layer1"
     transform="translate(-138.64169,-135.2021)">
    <path
       id="path111"
       d="m 6524.2667,2079.2126 496.9657,-496.9658 c 26.6966,-26.6965 26.6966,-70.5061 0,-97.2026 l -128.6908,-128.6909 c -26.6965,-26.6965 -70.5062,-26.6965 -97.2027,0 l -496.9658,496.9658 -496.9657,-496.9658 c -26.6965,-26.6965 -70.5062,-26.6965 -97.2027,0 l -128.6908,128.6909 c -26.6966,26.6965 -26.6966,70.5061 0,97.2026 l 496.9657,496.9658 -496.9657,496.9658 c -26.6966,26.6965 -26.6966,70.5061 0,97.2026 l 128.6908,128.6909 c 26.6965,26.6965 70.5062,26.6965 97.2027,0 l 496.9657,-496.9658 496.9658,496.9658 c 26.6965,26.6965 70.5062,26.6965 97.2027,0 l 128.6908,-128.6909 c 26.6966,-26.6965 26.6966,-70.5061 0,-97.2026 z"
       style="fill:#dd0e0e;fill-opacity:1;fill-rule:nonzero;stroke:none"
       transform="matrix(0.02116667,0,0,0.02116667,21.050438,106.91642)"
       clip-path="url(#clipPath112)" />
  </g>
</svg>
