<?xml version="1.0" encoding="UTF-8" standalone="no"?>
<!-- Created with Inkscape (http://www.inkscape.org/) -->

<svg
   width="33.327724mm"
   height="33.403095mm"
   viewBox="0 0 34 34"
   version="1.1"
   id="svg1"
   inkscape:export-filename="tick.svg"
   inkscape:export-xdpi="96"
   inkscape:export-ydpi="96"
   xmlns:inkscape="http://www.inkscape.org/namespaces/inkscape"
   xmlns:sodipodi="http://sodipodi.sourceforge.net/DTD/sodipodi-0.dtd"
   xmlns="http://www.w3.org/2000/svg"
   xmlns:svg="http://www.w3.org/2000/svg">
  <sodipodi:namedview
     id="namedview1"
     pagecolor="#ffffff"
     bordercolor="#000000"
     borderopacity="0.25"
     inkscape:showpageshadow="2"
     inkscape:pageopacity="0.0"
     inkscape:pagecheckerboard="0"
     inkscape:deskcolor="#d1d1d1"
     inkscape:document-units="mm">
    <inkscape:page
       x="0"
       y="0"
       width="33.327724"
       height="33.403095"
       id="page2"
       margin="0"
       bleed="0" />
  </sodipodi:namedview>
  <defs
     id="defs1">
    <clipPath
       clipPathUnits="userSpaceOnUse"
       id="clipPath82">
      <path
         d="m 3621.9685,1189.6063 c 0,-78.2766 63.4557,-141.7323 141.7323,-141.7323 h 1503.5433 c 78.2766,0 141.7323,63.4557 141.7323,141.7323 v 1779.2126 c 0,78.2766 -63.4557,141.7323 -141.7323,141.7323 H 3763.7008 c -78.2766,0 -141.7323,-63.4557 -141.7323,-141.7323 z"
         clip-rule="evenodd"
         id="path82" />
    </clipPath>
    <clipPath
       clipPathUnits="userSpaceOnUse"
       id="clipPath84">
      <path
         d="m 3621.9685,1189.6063 c 0,-78.2766 63.4557,-141.7323 141.7323,-141.7323 h 1503.5433 c 78.2766,0 141.7323,63.4557 141.7323,141.7323 v 1779.2126 c 0,78.2766 -63.4557,141.7323 -141.7323,141.7323 H 3763.7008 c -78.2766,0 -141.7323,-63.4557 -141.7323,-141.7323 z"
         transform="matrix(0.14037009,0,0,0.14037009,-523.33729,-177.35926)"
         clip-rule="evenodd"
         id="path84" />
    </clipPath>
    <clipPath
       clipPathUnits="userSpaceOnUse"
       id="clipPath86">
      <path
         d="m 3621.9685,1189.6063 c 0,-78.2766 63.4557,-141.7323 141.7323,-141.7323 h 1503.5433 c 78.2766,0 141.7323,63.4557 141.7323,141.7323 v 1779.2126 c 0,78.2766 -63.4557,141.7323 -141.7323,141.7323 H 3763.7008 c -78.2766,0 -141.7323,-63.4557 -141.7323,-141.7323 z"
         transform="matrix(0.14037009,0,0,0.14037009,-523.33729,-177.35926)"
         clip-rule="evenodd"
         id="path86" />
    </clipPath>
    <clipPath
       clipPathUnits="userSpaceOnUse"
       id="clipPath88">
      <path
         d="m 3621.9685,1189.6063 c 0,-78.2766 63.4557,-141.7323 141.7323,-141.7323 h 1503.5433 c 78.2766,0 141.7323,63.4557 141.7323,141.7323 v 1779.2126 c 0,78.2766 -63.4557,141.7323 -141.7323,141.7323 H 3763.7008 c -78.2766,0 -141.7323,-63.4557 -141.7323,-141.7323 z"
         transform="matrix(0.14037009,0,0,0.14037009,-523.33729,-177.35926)"
         clip-rule="evenodd"
         id="path88" />
    </clipPath>
    <clipPath
       clipPathUnits="userSpaceOnUse"
       id="clipPath90">
      <path
         d="m 3621.9685,1189.6063 c 0,-78.2766 63.4557,-141.7323 141.7323,-141.7323 h 1503.5433 c 78.2766,0 141.7323,63.4557 141.7323,141.7323 v 1779.2126 c 0,78.2766 -63.4557,141.7323 -141.7323,141.7323 H 3763.7008 c -78.2766,0 -141.7323,-63.4557 -141.7323,-141.7323 z"
         clip-rule="evenodd"
         id="path90" />
    </clipPath>
    <clipPath
       clipPathUnits="userSpaceOnUse"
       id="clipPath92">
      <path
         d="m 3621.9685,1189.6063 c 0,-78.2766 63.4557,-141.7323 141.7323,-141.7323 h 1503.5433 c 78.2766,0 141.7323,63.4557 141.7323,141.7323 v 1779.2126 c 0,78.2766 -63.4557,141.7323 -141.7323,141.7323 H 3763.7008 c -78.2766,0 -141.7323,-63.4557 -141.7323,-141.7323 z"
         transform="matrix(0.14037009,0,0,0.14037009,-523.33729,-177.35926)"
         clip-rule="evenodd"
         id="path92" />
    </clipPath>
    <clipPath
       clipPathUnits="userSpaceOnUse"
       id="clipPath94">
      <path
         d="m 3621.9685,1189.6063 c 0,-78.2766 63.4557,-141.7323 141.7323,-141.7323 h 1503.5433 c 78.2766,0 141.7323,63.4557 141.7323,141.7323 v 1779.2126 c 0,78.2766 -63.4557,141.7323 -141.7323,141.7323 H 3763.7008 c -78.2766,0 -141.7323,-63.4557 -141.7323,-141.7323 z"
         transform="matrix(0.14037009,0,0,0.14037009,-523.33729,-177.35926)"
         clip-rule="evenodd"
         id="path94" />
    </clipPath>
    <clipPath
       clipPathUnits="userSpaceOnUse"
       id="clipPath96">
      <path
         d="m 3621.9685,1189.6063 c 0,-78.2766 63.4557,-141.7323 141.7323,-141.7323 h 1503.5433 c 78.2766,0 141.7323,63.4557 141.7323,141.7323 v 1779.2126 c 0,78.2766 -63.4557,141.7323 -141.7323,141.7323 H 3763.7008 c -78.2766,0 -141.7323,-63.4557 -141.7323,-141.7323 z"
         clip-rule="evenodd"
         id="path96" />
    </clipPath>
    <clipPath
       clipPathUnits="userSpaceOnUse"
       id="clipPath98">
      <path
         d="m 3621.9685,1189.6063 c 0,-78.2766 63.4557,-141.7323 141.7323,-141.7323 h 1503.5433 c 78.2766,0 141.7323,63.4557 141.7323,141.7323 v 1779.2126 c 0,78.2766 -63.4557,141.7323 -141.7323,141.7323 H 3763.7008 c -78.2766,0 -141.7323,-63.4557 -141.7323,-141.7323 z"
         transform="matrix(0.14037009,0,0,0.14037009,-523.33729,-177.35926)"
         clip-rule="evenodd"
         id="path98" />
    </clipPath>
    <clipPath
       clipPathUnits="userSpaceOnUse"
       id="clipPath100">
      <path
         d="m 3621.9685,1189.6063 c 0,-78.2766 63.4557,-141.7323 141.7323,-141.7323 h 1503.5433 c 78.2766,0 141.7323,63.4557 141.7323,141.7323 v 1779.2126 c 0,78.2766 -63.4557,141.7323 -141.7323,141.7323 H 3763.7008 c -78.2766,0 -141.7323,-63.4557 -141.7323,-141.7323 z"
         transform="matrix(0.14037009,0,0,0.14037009,-523.33729,-177.35926)"
         clip-rule="evenodd"
         id="path100" />
    </clipPath>
    <clipPath
       clipPathUnits="userSpaceOnUse"
       id="clipPath102">
      <path
         d="m 3621.9685,1189.6063 c 0,-78.2766 63.4557,-141.7323 141.7323,-141.7323 h 1503.5433 c 78.2766,0 141.7323,63.4557 141.7323,141.7323 v 1779.2126 c 0,78.2766 -63.4557,141.7323 -141.7323,141.7323 H 3763.7008 c -78.2766,0 -141.7323,-63.4557 -141.7323,-141.7323 z"
         clip-rule="evenodd"
         id="path102" />
    </clipPath>
    <clipPath
       clipPathUnits="userSpaceOnUse"
       id="clipPath104">
      <path
         d="m 3621.9685,1189.6063 c 0,-78.2766 63.4557,-141.7323 141.7323,-141.7323 h 1503.5433 c 78.2766,0 141.7323,63.4557 141.7323,141.7323 v 1779.2126 c 0,78.2766 -63.4557,141.7323 -141.7323,141.7323 H 3763.7008 c -78.2766,0 -141.7323,-63.4557 -141.7323,-141.7323 z"
         transform="matrix(0.14037009,0,0,0.14037009,-523.33729,-177.35926)"
         clip-rule="evenodd"
         id="path104" />
    </clipPath>
    <clipPath
       clipPathUnits="userSpaceOnUse"
       id="clipPath106">
      <path
         d="m 3621.9685,1189.6063 c 0,-78.2766 63.4557,-141.7323 141.7323,-141.7323 h 1503.5433 c 78.2766,0 141.7323,63.4557 141.7323,141.7323 v 1779.2126 c 0,78.2766 -63.4557,141.7323 -141.7323,141.7323 H 3763.7008 c -78.2766,0 -141.7323,-63.4557 -141.7323,-141.7323 z"
         clip-rule="evenodd"
         id="path106" />
    </clipPath>
    <clipPath
       clipPathUnits="userSpaceOnUse"
       id="clipPath108">
      <path
         d="m 3621.9685,1189.6063 c 0,-78.2766 63.4557,-141.7323 141.7323,-141.7323 h 1503.5433 c 78.2766,0 141.7323,63.4557 141.7323,141.7323 v 1779.2126 c 0,78.2766 -63.4557,141.7323 -141.7323,141.7323 H 3763.7008 c -78.2766,0 -141.7323,-63.4557 -141.7323,-141.7323 z"
         transform="matrix(0.14037009,0,0,0.14037009,-523.33729,-177.35926)"
         clip-rule="evenodd"
         id="path108" />
    </clipPath>
    <clipPath
       clipPathUnits="userSpaceOnUse"
       id="clipPath110">
      <path
         d="m 3621.9685,1189.6063 c 0,-78.2766 63.4557,-141.7323 141.7323,-141.7323 h 1503.5433 c 78.2766,0 141.7323,63.4557 141.7323,141.7323 v 1779.2126 c 0,78.2766 -63.4557,141.7323 -141.7323,141.7323 H 3763.7008 c -78.2766,0 -141.7323,-63.4557 -141.7323,-141.7323 z"
         clip-rule="evenodd"
         id="path110" />
    </clipPath>
  </defs>
  <g
     inkscape:label="Layer 1"
     inkscape:groupmode="layer"
     id="layer1"
     transform="translate(-98.160425,-65.08751)">
    <path
       id="path81"
       d="m 4917.9798,2092.0358 v -39.1821 -36.3325 l -3.562,-37.0449 -7.8364,-39.1822 -3.562,-33.4829 -9.2613,-39.1821 -17.81,-68.3907 -27.7837,-66.9658 -12.1109,-32.7705 -14.9604,-26.3589 -16.3853,-29.9209 -19.2348,-27.7837 -19.2349,-27.7837 -19.9473,-29.2085 -39.1821,-47.731 -23.5093,-19.9472 -24.2217,-22.7969 -21.372,-20.6597 -24.2217,-16.3852 -27.7837,-18.5225 -22.7969,-12.8233 -27.0713,-13.5356 -27.7837,-14.248 -27.0713,-6.4117 -31.3457,-11.3984 -27.7837,-5.6992 -29.9209,-4.9868 -29.2085,-2.8497 h -31.3457 -30.6333 l -27.7837,2.8497 -32.7705,4.9868 -24.9341,5.6992 -32.7705,11.3984 -27.7837,6.4117 -26.3589,14.248 -27.7837,13.5356 -24.2217,12.8233 -26.3589,18.5225 -24.2217,16.3852 -23.5092,20.6597 -22.7969,22.7969 -24.2217,19.9472 -42.7441,47.731 -19.9473,29.2085 -14.2481,27.7837 -36.3325,57.7046 -14.9604,26.3589 -12.8233,32.7705 -14.9604,35.6201 -9.9737,31.3457 -12.8232,32.7705 -7.8364,35.6202 -8.5489,39.1821 -7.8364,33.4829 -3.562,39.1822 -4.9868,37.0449 v 36.3325 l -3.562,39.1821 3.562,39.1822 v 37.7573 l 4.9868,36.3325 3.562,39.1822 7.8364,35.6201 8.5489,37.7573 20.6596,67.6783 24.9341,66.9658 12.8233,31.3457 14.9604,30.6333 16.3853,27.7837 19.9472,27.7837 14.2481,27.7837 19.9473,27.7837 42.7441,49.1558 24.2217,19.9472 22.7969,22.7969 23.5092,19.9473 24.2217,16.3852 26.3589,16.3853 24.2217,14.9604 27.7837,12.8233 26.3589,14.9604 27.7837,11.3985 32.7705,4.9868 24.9341,7.8364 32.7705,4.9868 27.7837,1.4248 h 30.6333 31.3457 l 29.2085,-1.4248 29.9209,-4.9868 27.7837,-7.8364 31.3457,-4.9868 27.0713,-11.3985 27.7837,-14.9604 27.0713,-12.8233 22.7969,-14.9604 27.7837,-16.3853 24.2217,-16.3852 21.372,-19.9473 24.2217,-22.7969 23.5093,-19.9472 39.1821,-49.1558 19.9473,-27.7837 19.2349,-27.7837 35.6201,-55.5674 14.9604,-30.6333 12.1109,-31.3457 15.6728,-34.9077 12.1109,-32.0581 7.8364,-32.7706 9.9736,-34.9077 9.2613,-37.7573 3.562,-35.6201 7.8364,-39.1822 3.562,-36.3325 v -37.7573 z"
       style="fill:#e1cab0;fill-opacity:1;fill-rule:evenodd;stroke:none"
       transform="matrix(0.02116667,0,0,0.02116667,19.368765,37.905878)"
       clip-path="url(#clipPath82)" />
    <path
       id="path83"
       d="m 84.3,10.1 -4.2,0.2 -4.1,0.5 -4.2,0.5 -3.9,0.9 -3.9,1.4 -4.1,1.3 -3.7,1.7 -3.7,1.8 -3.7,2.3 -3.6,2.1 -3.3,2.7 -3.2,2.6 -3.4,3.1 -3.2,3.1 -2.8,3.4 -2.8,3.4 -2.9,3.7 -2.6,3.9 -2.5,3.9 -2.1,4.2 -2.3,4.4 -2,4.5 -1.7,4.4 -1.6,4.6 -1.4,4.8 -1.5,4.9 -1,5.2 -0.9,5.1 -0.7,5 -0.6,5.3 -0.3,5.3 -0.2,5.5 0.2,5.4 0.3,5.4 0.6,5.3 0.7,5.3 0.9,4.9 1,5 1.5,4.9 1.4,4.8 1.6,4.6 1.7,4.6 2,4.5 2.3,4.2 2.1,4.2 2.5,3.9 2.6,3.9 2.9,3.8 2.8,3.5 2.8,3.4 3.2,3 3.4,2.8 3.2,3 3.3,2.3 3.6,2.5 3.7,1.9 3.7,2.2 3.7,1.4 4.1,1.6 3.9,1 3.9,0.9 4.2,0.7 4.1,0.6 4.2,0.1 4.3,-0.1 4.2,-0.6 3.9,-0.7 3.9,-0.9 4.1,-1 3.9,-1.6 3.9,-1.4 3.7,-2.2 3.7,-1.9 3.6,-2.5 3.1,-2.3 3.4,-3 3.4,-2.8 3,-3 3.2,-3.4 2.8,-3.5 2.7,-3.8 2.4,-3.9 2.5,-3.9 2.3,-4.2 2.1,-4.2 2,-4.5 1.9,-4.6 1.4,-4.6 1.6,-4.8 1.3,-4.9 1.2,-5 0.9,-4.9 0.5,-5.3 0.7,-5.3 0.2,-5.4 0.4,-5.4 -0.4,-5.5 -0.2,-5.3 -0.7,-5.3 -0.5,-5 -0.9,-5.1 -1.2,-5.2 -1.3,-4.9 -1.6,-4.8 -1.4,-4.6 -1.9,-4.4 -2,-4.5 -2.1,-4.4 -2.3,-4.2 -2.5,-3.9 -2.4,-3.9 -2.7,-3.7 -2.8,-3.4 -3.2,-3.4 -3,-3.1 -3.4,-3.1 -3.4,-2.6 -3.1,-2.7 -3.6,-2.1 -3.7,-2.3 -3.7,-1.8 -3.9,-1.7 -3.9,-1.3 -4.1,-1.4 -3.9,-0.9 -3.9,-0.5 -4.2,-0.5 z"
       style="fill:none;stroke:#000000;stroke-width:6.0359;stroke-linecap:round;stroke-linejoin:round;stroke-miterlimit:10;stroke-dasharray:none;stroke-opacity:1"
       transform="matrix(0.15079185,0,0,0.15079185,98.283765,64.65021)"
       clip-path="url(#clipPath84)" />
    <path
       id="path85"
       d="m 94.9,150.6 -2,1.1 -1.9,0.9 -1.8,0.7 -1.6,0.9 -1.4,0.3 -1.4,0.4 -0.7,0.2 h -0.5 l -0.8,0.1 h -0.7 -0.5 -0.7 l -0.7,-0.1 h -0.7 l -1.4,-0.2 -1.6,-0.6 -1.6,-0.3 -1.8,-0.7 -2.1,-0.7 -2.1,-0.7 0.3,-2.3 0.4,-2.5 0.5,-2.3 0.4,-2.3 1.4,-5 1.2,-4.6 1.4,-4.8 1.1,-4.7 0.7,-2.5 0.3,-2.3 0.6,-2.5 0.3,-2.3"
       style="fill:none;stroke:#000000;stroke-width:6.0359;stroke-linecap:round;stroke-linejoin:round;stroke-miterlimit:10;stroke-dasharray:none;stroke-opacity:1"
       transform="matrix(0.15079185,0,0,0.15079185,98.283765,64.65021)"
       clip-path="url(#clipPath86)" />
    <path
       id="path87"
       d="m 113.2,180.4 -0.5,-0.7 -0.2,-0.8 -0.5,-0.7 -0.5,-0.7 -0.6,-0.5 -0.5,-0.4 -0.5,-0.5 -0.7,-0.5 -0.7,-0.2 -0.7,-0.5 -0.7,-0.2 -0.9,-0.2 h -0.9 l -0.7,-0.3 h -0.9 -0.7 -1.1 -0.9 l -0.8,0.3 h -1.1 l -1.1,0.2 -1,0.2 -1.1,0.5 -1.4,0.2 -1.1,0.5 -1.2,0.5 -1.4,0.4 -0.9,0.5 -1.4,0.7 -1.3,0.7 -1.7,0.8 -1.3,0.7 0.4,0.1 -0.9,0.6 -1.4,0.9 -1.1,0.7 -1,0.3 -1.1,0.7 -1.1,0.6 -1,0.3 -1.1,0.5 -1.1,0.2 -1,0.4 -1.1,0.3 h -1 l -0.9,0.4 -1.1,0.2 H 69 67.9 67.2 66.3 l -1,-0.2 -0.7,-0.4 h -0.9 l -0.7,-0.3 -0.9,-0.4 -0.7,-0.2 -0.7,-0.5 -0.9,-0.3 -0.7,-0.6 -0.5,-0.7 -0.9,-0.3 -0.9,-0.7 -0.4,-0.9 -0.9,-0.6"
       style="fill:none;stroke:#000000;stroke-width:6.0359;stroke-linecap:round;stroke-linejoin:round;stroke-miterlimit:10;stroke-dasharray:none;stroke-opacity:1"
       transform="matrix(0.15079185,0,0,0.15079185,98.283765,64.65021)"
       clip-path="url(#clipPath88)" />
    <path
       id="path89"
       d="m 3937.0016,2000.8483 c 33.483,24.2217 77.6519,39.1822 125.3829,39.1822 47.7309,0 91.1875,-14.2481 123.958,-37.7574 v -0.7124 c -32.7705,-34.9077 -76.9395,-56.9922 -123.958,-56.9922 -47.731,0 -91.8999,22.0845 -125.3829,58.417"
       style="fill:#feffff;fill-opacity:1;fill-rule:nonzero;stroke:none"
       transform="matrix(0.02116667,0,0,0.02116667,19.368765,37.905878)"
       clip-path="url(#clipPath90)" />
    <path
       id="path91"
       d="m 29.3,103.5 c 4.7,3.4 10.9,5.5 17.6,5.5 6.7,0 12.8,-2 17.4,-5.3 v -0.1 c -4.6,-4.9 -10.8,-8 -17.4,-8 -6.7,0 -12.9,3.1 -17.6,8.2"
       style="fill:none;stroke:#feffff;stroke-width:5;stroke-linecap:round;stroke-linejoin:round;stroke-miterlimit:10;stroke-dasharray:none;stroke-opacity:1"
       transform="matrix(0.15079185,0,0,0.15079185,98.283765,64.65021)"
       clip-path="url(#clipPath92)" />
    <path
       id="path93"
       d="m 24.6,105.3 c 5.9,-6.2 13.8,-9.8 22.4,-9.8 8.4,0 16.2,3.6 22.1,9.5"
       style="fill:none;stroke:#000000;stroke-width:5;stroke-linecap:round;stroke-linejoin:round;stroke-miterlimit:10;stroke-dasharray:none;stroke-opacity:1"
       transform="matrix(0.15079185,0,0,0.15079185,98.283765,64.65021)"
       clip-path="url(#clipPath94)" />
    <path
       id="path95"
       d="m 4472.0159,2000.8483 c 33.4829,24.2217 77.6518,39.1822 125.3828,39.1822 47.731,0 91.1875,-14.2481 123.958,-37.7574 v -0.7124 c -32.7705,-34.9077 -76.9394,-56.9922 -123.958,-56.9922 -47.731,0 -91.8999,22.0845 -125.3828,58.417"
       style="fill:#feffff;fill-opacity:1;fill-rule:nonzero;stroke:none"
       transform="matrix(0.02116667,0,0,0.02116667,19.368765,37.905878)"
       clip-path="url(#clipPath96)" />
    <path
       id="path97"
       d="m 104.4,103.5 c 4.7,3.4 10.9,5.5 17.6,5.5 6.7,0 12.8,-2 17.4,-5.3 v -0.1 c -4.6,-4.9 -10.8,-8 -17.4,-8 -6.7,0 -12.9,3.1 -17.6,8.2"
       style="fill:none;stroke:#feffff;stroke-width:5;stroke-linecap:round;stroke-linejoin:round;stroke-miterlimit:10;stroke-dasharray:none;stroke-opacity:1"
       transform="matrix(0.15079185,0,0,0.15079185,98.283765,64.65021)"
       clip-path="url(#clipPath98)" />
    <path
       id="path99"
       d="m 99.7,105.3 c 5.9,-6.2 13.8,-9.8 22.4,-9.8 8.4,0 16.2,3.6 22.1,9.5"
       style="fill:none;stroke:#000000;stroke-width:5;stroke-linecap:round;stroke-linejoin:round;stroke-miterlimit:10;stroke-dasharray:none;stroke-opacity:1"
       transform="matrix(0.15079185,0,0,0.15079185,98.283765,64.65021)"
       clip-path="url(#clipPath100)" />
    <path
       id="path101"
       d="m 4105.1286,1996.5739 c 0,24.0004 -19.4561,43.4566 -43.4565,43.4566 -24.0004,0 -43.4566,-19.4562 -43.4566,-43.4566 0,-24.0004 19.4562,-43.4565 43.4566,-43.4565 24.0004,0 43.4565,19.4561 43.4565,43.4565 z"
       style="fill:#000000;fill-opacity:1;fill-rule:evenodd;stroke:none"
       transform="matrix(0.02116667,0,0,0.02116667,19.368765,37.905878)"
       clip-path="url(#clipPath102)" />
    <path
       id="path103"
       d="m 52.9,102.9 c 0,3.36894 -2.731063,6.1 -6.1,6.1 -3.368937,0 -6.1,-2.73106 -6.1,-6.1 0,-3.368937 2.731063,-6.1 6.1,-6.1 3.368937,0 6.1,2.731063 6.1,6.1 z"
       style="fill:none;stroke:#000000;stroke-width:5;stroke-linecap:butt;stroke-linejoin:miter;stroke-miterlimit:10;stroke-dasharray:none;stroke-opacity:1"
       transform="matrix(0.15079185,0,0,0.15079185,98.283765,64.65021)"
       clip-path="url(#clipPath104)" />
    <path
       id="path105"
       d="m 4640.1429,1996.5739 c 0,24.0004 -19.4562,43.4566 -43.4566,43.4566 -24.0004,0 -43.4565,-19.4562 -43.4565,-43.4566 0,-24.0004 19.4561,-43.4565 43.4565,-43.4565 24.0004,0 43.4566,19.4561 43.4566,43.4565 z"
       style="fill:#000000;fill-opacity:1;fill-rule:evenodd;stroke:none"
       transform="matrix(0.02116667,0,0,0.02116667,19.368765,37.905878)"
       clip-path="url(#clipPath106)" />
    <path
       id="path107"
       d="m 128,102.9 c 0,3.36894 -2.73106,6.1 -6.1,6.1 -3.36894,0 -6.1,-2.73106 -6.1,-6.1 0,-3.368937 2.73106,-6.1 6.1,-6.1 3.36894,0 6.1,2.731063 6.1,6.1 z"
       style="fill:none;stroke:#000000;stroke-width:5;stroke-linecap:butt;stroke-linejoin:miter;stroke-miterlimit:10;stroke-dasharray:none;stroke-opacity:1"
       transform="matrix(0.15079185,0,0,0.15079185,98.283765,64.65021)"
       clip-path="url(#clipPath108)" />
    <path
       id="path109"
       d="m 5069.0091,2000.1359 c -18.5224,0 -33.4829,-6.4116 -46.3061,-18.5224 -12.1108,-12.1109 -18.5225,-27.7837 -18.5225,-46.3062 0,-19.2349 6.4117,-34.1953 18.5225,-47.0186 12.1108,-12.1108 27.7837,-18.5224 46.3061,-18.5224 19.2349,0 34.1954,6.4116 47.0186,18.5224 12.1109,12.1109 18.5225,27.7837 18.5225,47.0186 0,19.2349 -6.4116,34.9077 -18.5225,46.3062 -12.1108,12.1108 -27.7837,18.5224 -47.0186,18.5224 z m -17.0976,-223.6943 c -11.3985,0 -17.0977,-5.6993 -17.0977,-17.0977 l -0.7124,-27.0713 c 0,-28.4961 6.4116,-54.855 19.2349,-78.3643 12.8232,-23.5093 36.3325,-48.4433 70.5278,-74.8022 27.7837,-21.3721 47.731,-41.3194 58.417,-59.8418 10.6861,-18.5225 16.3853,-37.045 16.3853,-56.9922 0,-29.2085 -10.686,-52.7178 -31.3457,-69.8155 -21.3721,-17.0976 -50.5806,-25.6465 -87.6255,-25.6465 -24.9341,0 -49.1558,4.9869 -73.3775,14.2481 -24.2217,9.2612 -50.5805,24.9341 -78.3642,46.3061 -7.1241,5.6993 -14.2481,7.1241 -20.6597,4.2745 -6.4116,-3.5621 -8.5488,-9.2613 -6.4116,-17.8101 l 7.124,-44.8814 c 2.1372,-9.2612 4.2744,-16.3852 7.124,-21.372 2.8496,-4.9869 7.8364,-9.2613 16.3853,-14.2481 49.8681,-32.7705 105.4355,-49.1558 165.2773,-49.1558 61.2667,0 110.4224,14.9605 146.0425,44.8814 36.3326,29.9209 54.1426,71.2402 54.1426,123.958 0,31.3457 -7.8364,60.5542 -22.7968,86.9131 -15.6729,27.0713 -42.0318,54.855 -80.5015,85.4883 -29.9209,22.7969 -50.5806,42.7442 -61.979,59.8418 -11.3985,17.0977 -17.8101,34.9078 -19.2349,52.7178 l -2.1372,21.3721 c -2.1372,11.3984 -8.5488,17.0977 -19.2349,17.0977 z"
       style="fill:#000000;fill-opacity:1;fill-rule:nonzero;stroke:none"
       transform="matrix(0.02116667,0,0,0.02116667,19.368765,37.905878)"
       clip-path="url(#clipPath110)" />
  </g>
</svg>
